<svg width="24" height="24" viewBox="0 0 24 24" fill="none" xmlns="http://www.w3.org/2000/svg">
<path d="M13.7225 14.322C13.5782 14.3572 13.4329 14.3884 13.2869 14.4156C12.4944 14.5648 11.6807 14.5617 10.8893 14.4066C10.7507 14.3796 10.5545 14.3319 10.3016 14.2644L9.4727 15.3417C7.427 15.276 6.6494 13.9053 6.6494 13.9053C6.6494 10.8624 7.9823 8.3955 7.9823 8.3955C9.3152 7.3758 10.5833 7.4037 10.5833 7.4037L10.946 7.8762C10.9794 7.87151 11.0131 7.86851 11.0468 7.8672C11.7382 7.77555 12.4388 7.77858 13.1294 7.8762L13.5272 7.4037C13.5272 7.4037 14.7962 7.3758 16.1282 8.3964C16.1282 8.3964 17.462 10.8624 17.462 13.9053C17.462 13.9053 16.6745 15.2751 14.6288 15.3417L13.7225 14.3211V14.322ZM10.2683 11.1C9.7274 11.1 9.2999 11.505 9.2999 12C9.2999 12.495 9.7364 12.9 10.2683 12.9C10.8083 12.9 11.2358 12.495 11.2358 12C11.2448 11.505 10.8092 11.1 10.2683 11.1ZM13.7315 11.1C13.1915 11.1 12.764 11.505 12.764 12C12.764 12.495 13.2005 12.9 13.7315 12.9C14.2724 12.9 14.6999 12.495 14.6999 12C14.6999 11.505 14.2724 11.1 13.7315 11.1ZM20.0999 21.9L15.6089 17.4H18.2999V4.8H5.6999V17.4H15.6026L16.1156 19.2H5.6999C5.22251 19.2 4.76468 19.0104 4.42711 18.6728C4.08954 18.3352 3.8999 17.8774 3.8999 17.4V4.8C3.8999 4.32261 4.08954 3.86477 4.42711 3.52721C4.76468 3.18964 5.22251 3 5.6999 3H18.2999C18.7773 3 19.2351 3.18964 19.5727 3.52721C19.9103 3.86477 20.0999 4.32261 20.0999 4.8V21.9Z" fill="currentColor"/>
</svg>
