<svg width="24" height="24" viewBox="0 0 24 24" fill="none" xmlns="http://www.w3.org/2000/svg">
<path d="M6.49471 17.9877C6.22471 17.8077 5.99251 17.5782 5.72071 17.2533C5.57963 17.0806 5.43982 16.9069 5.30131 16.7322C4.88461 16.2147 4.62181 15.9762 4.35001 15.8781C4.12528 15.7974 3.9418 15.6308 3.83994 15.4148C3.73808 15.1989 3.72618 14.9513 3.80686 14.7265C3.88754 14.5018 4.05418 14.3183 4.27014 14.2165C4.4861 14.1146 4.73368 14.1027 4.95841 14.1834C5.63521 14.4264 6.09331 14.8449 6.71071 15.6126C6.62611 15.5073 7.01671 15.9969 7.10041 16.0977C7.27141 16.302 7.39741 16.4262 7.49641 16.4919C7.68001 16.6152 8.02471 16.6683 8.53141 16.6179C8.55211 16.2741 8.61601 15.9402 8.71321 15.6324C6.04201 14.979 4.53001 13.2564 4.53001 9.876C4.53001 8.76 4.86301 7.7556 5.48221 6.9132C5.28601 6.1086 5.31571 5.1357 5.75401 4.0404C5.80375 3.9165 5.88043 3.80522 5.9785 3.71462C6.07657 3.62403 6.19356 3.55638 6.32101 3.5166C6.39391 3.495 6.43531 3.4851 6.50821 3.4743C7.23091 3.3636 8.25151 3.6273 9.58171 4.4607C10.3744 4.27537 11.1859 4.18235 12 4.1835C12.8208 4.1835 13.6362 4.2771 14.4156 4.4607C15.7449 3.621 16.7673 3.3573 17.4954 3.4743C17.5719 3.486 17.6367 3.5013 17.6916 3.5193C17.8166 3.5605 17.9309 3.62859 18.0267 3.71877C18.1225 3.80896 18.1974 3.91905 18.246 4.0413C18.6843 5.1357 18.714 6.1086 18.5178 6.9123C19.1397 7.7547 19.47 8.7528 19.47 9.876C19.47 13.2573 17.9634 14.9745 15.2922 15.6288C15.4047 16.0023 15.4632 16.4199 15.4632 16.8708C15.4633 17.6856 15.4597 18.5004 15.4524 19.3152C15.6545 19.3593 15.8353 19.4717 15.9643 19.6334C16.0932 19.7952 16.1626 19.9964 16.1605 20.2033C16.1585 20.4101 16.0853 20.61 15.9532 20.7692C15.8211 20.9284 15.6382 21.0372 15.4353 21.0774C14.4102 21.2826 13.6506 20.5986 13.6506 19.7049L13.6524 19.3035L13.6569 18.669C13.6614 18.0318 13.6632 17.4648 13.6632 16.8708C13.6632 16.2435 13.4985 15.834 13.2807 15.6468C12.6858 15.1338 12.9873 14.1573 13.7667 14.07C16.437 13.7703 17.67 12.7362 17.67 9.876C17.67 9.0165 17.3892 8.3064 16.8483 7.7124C16.7343 7.58752 16.6579 7.43306 16.6276 7.26673C16.5974 7.10039 16.6146 6.9289 16.6773 6.7719C16.8267 6.3993 16.8906 5.9106 16.7637 5.3193L16.7547 5.322C16.3128 5.4471 15.7557 5.718 15.0825 6.1761C14.974 6.24977 14.8506 6.29881 14.7211 6.3198C14.5916 6.34079 14.4591 6.33321 14.3328 6.2976C13.5731 6.08726 12.7883 5.98158 12 5.9835C11.199 5.9835 10.4052 6.0906 9.66721 6.2985C9.5414 6.33383 9.40942 6.34134 9.28042 6.32051C9.15142 6.29969 9.0285 6.25102 8.92021 6.1779C8.24341 5.7216 7.68361 5.4516 7.23901 5.3256C7.10941 5.9133 7.17331 6.4002 7.32181 6.7719C7.38463 6.92882 7.402 7.10026 7.37192 7.26659C7.34183 7.43292 7.26552 7.58742 7.15171 7.7124C6.61441 8.301 6.33001 9.0246 6.33001 9.876C6.33001 12.7308 7.56391 13.7712 10.2198 14.07C10.9983 14.1573 11.3007 15.1293 10.7094 15.6432C10.5366 15.7944 10.3233 16.302 10.3233 16.8708V19.7058C10.3233 20.5932 9.57181 21.2583 8.55931 21.081C8.3539 21.0449 8.16739 20.9386 8.03165 20.7803C7.89592 20.622 7.81938 20.4214 7.81513 20.2129C7.81088 20.0044 7.87918 19.8009 8.00835 19.6371C8.13751 19.4734 8.31954 19.3596 8.52331 19.3152V18.4242C7.70431 18.4791 7.02751 18.345 6.49471 17.9877Z" fill="currentColor"/>
</svg>
