<svg width="32" height="32" viewBox="0 0 32 32" fill="none" xmlns="http://www.w3.org/2000/svg">
<path d="M17.3344 20.055L16.4764 21.243C17.2904 21.969 18.3024 22.332 19.5124 22.332C20.4364 22.31 21.1404 22.0717 21.6244 21.617C22.1157 21.155 22.3614 20.605 22.3614 19.967C22.3614 19.3437 22.1891 18.8303 21.8444 18.427C21.4997 18.0237 20.9204 17.701 20.1064 17.459C19.4317 17.2537 18.9551 17.0667 18.6764 16.898C18.3977 16.722 18.2584 16.5093 18.2584 16.26C18.2584 16.0327 18.3721 15.8493 18.5994 15.71C18.8267 15.5707 19.1311 15.501 19.5124 15.501C19.7911 15.501 20.1064 15.556 20.4584 15.666C20.8104 15.7613 21.1221 15.9153 21.3934 16.128L22.1634 14.929C21.4887 14.3863 20.5941 14.115 19.4794 14.115C18.6801 14.115 18.0237 14.3203 17.5104 14.731C16.9824 15.1417 16.7184 15.6513 16.7184 16.26C16.7257 16.9053 16.9384 17.4077 17.3564 17.767C17.7817 18.1263 18.3867 18.4197 19.1714 18.647C19.8241 18.8523 20.2677 19.0577 20.5024 19.263C20.7297 19.4683 20.8434 19.7177 20.8434 20.011C20.8434 20.297 20.7297 20.517 20.5024 20.671C20.2677 20.8323 19.9304 20.913 19.4904 20.913C18.7717 20.9203 18.0531 20.6343 17.3344 20.055ZM11.804 20.693C11.5841 20.561 11.3787 20.3667 11.188 20.11L10.154 20.957C10.462 21.4777 10.8434 21.8407 11.298 22.046C11.7234 22.2367 12.2111 22.332 12.7611 22.332C13.0617 22.332 13.3734 22.2843 13.696 22.189C14.0187 22.0937 14.3157 21.9323 14.5871 21.705C15.0637 21.3237 15.3131 20.7003 15.3351 19.835V14.247H13.85V19.549C13.85 20.055 13.7364 20.4107 13.5091 20.616C13.2817 20.814 12.9957 20.913 12.651 20.913C12.321 20.913 12.0387 20.8397 11.804 20.693ZM7 10C7 8.34315 8.34315 7 10 7H22C23.6569 7 25 8.34315 25 10V22C25 23.6569 23.6569 25 22 25H10C8.34315 25 7 23.6569 7 22V10ZM10 9C9.44772 9 9 9.44772 9 10V22C9 22.5523 9.44772 23 10 23H22C22.5523 23 23 22.5523 23 22V10C23 9.44772 22.5523 9 22 9H10Z" fill="currentColor"/>
</svg>
