<svg width="21" height="20" viewBox="0 0 21 20" fill="none" xmlns="http://www.w3.org/2000/svg">
<path d="M8.75 6.25C8.74985 7.29298 9.06035 8.31237 9.64192 9.17816C10.2235 10.0439 11.0497 10.7169 12.0153 11.1112C12.9809 11.5055 14.0421 11.6032 15.0634 11.3919C16.0848 11.1807 17.0201 10.67 17.75 9.925V10C17.75 14.1422 14.3922 17.5 10.25 17.5C6.10775 17.5 2.75 14.1422 2.75 10C2.75 5.85775 6.10775 2.5 10.25 2.5H10.325C9.82553 2.98834 9.42886 3.57172 9.15836 4.21576C8.88786 4.8598 8.74902 5.55146 8.75 6.25V6.25ZM4.25 10C4.24945 11.3387 4.69665 12.6392 5.52042 13.6945C6.34419 14.7497 7.49723 15.4992 8.79606 15.8236C10.0949 16.148 11.4649 16.0287 12.6881 15.4847C13.9114 14.9407 14.9175 14.0033 15.5465 12.8215C14.4271 13.0852 13.2588 13.0586 12.1526 12.744C11.0464 12.4295 10.0389 11.8376 9.22566 11.0243C8.41244 10.2111 7.82048 9.20361 7.50596 8.09738C7.19144 6.99116 7.16477 5.82292 7.4285 4.7035C6.46818 5.2151 5.66509 5.97825 5.10519 6.91123C4.5453 7.84422 4.24968 8.91191 4.25 10V10Z" fill="currentColor"/>
</svg>
