<svg width="16" height="16" viewBox="0 0 16 16" fill="none" xmlns="http://www.w3.org/2000/svg">
<path d="M10.7577 1.42401L14.5659 5.23161C14.6051 5.27078 14.6327 5.32007 14.6456 5.37399C14.6586 5.42791 14.6563 5.48436 14.6391 5.53707C14.6219 5.58978 14.5904 5.63668 14.5481 5.67257C14.5058 5.70847 14.4545 5.73195 14.3997 5.74041L13.5153 5.87841L10.1217 2.48481L10.2489 1.59381C10.2568 1.53871 10.2798 1.4869 10.3155 1.44417C10.3512 1.40144 10.398 1.36948 10.4508 1.35185C10.5036 1.33423 10.5603 1.33165 10.6145 1.34439C10.6687 1.35713 10.7182 1.3847 10.7577 1.42401ZM3.55706 12.89C5.79026 10.8914 8.35406 10.2932 11.1429 9.57801L11.4105 7.16721L8.83226 4.58901L6.42146 4.85661C5.70626 7.64541 5.10806 10.2086 3.10946 12.4424L2.27246 11.606C3.96926 9.62601 4.60646 7.43421 5.45426 3.75741L9.27266 3.33321L12.6669 6.72741L12.2427 10.5458C8.56586 11.3942 6.37346 12.0308 4.39406 13.7276L3.55706 12.89ZM6.72746 9.27201C6.61285 9.16131 6.52143 9.0289 6.45854 8.88249C6.39565 8.73609 6.36255 8.57862 6.36116 8.41929C6.35978 8.25995 6.39014 8.10194 6.45048 7.95446C6.51081 7.80699 6.59992 7.673 6.71259 7.56033C6.82526 7.44766 6.95924 7.35856 7.10672 7.29822C7.25419 7.23788 7.41221 7.20752 7.57154 7.20891C7.73088 7.21029 7.88834 7.24339 8.03475 7.30628C8.18115 7.36917 8.31357 7.46059 8.42426 7.57521C8.63985 7.80204 8.75829 8.10412 8.75434 8.41704C8.75039 8.72995 8.62435 9.02894 8.40311 9.25026C8.18187 9.47159 7.88292 9.59772 7.57001 9.60179C7.25709 9.60585 6.95497 9.48751 6.72806 9.27201H6.72746Z" fill="currentColor"/>
</svg>
