<svg width="32" height="32" viewBox="0 0 32 32" fill="none" xmlns="http://www.w3.org/2000/svg">
<path d="M15.9999 17.8C15.5225 17.8 15.0647 17.6103 14.7271 17.2728C14.3895 16.9352 14.1999 16.4774 14.1999 16C14.1999 15.5226 14.3895 15.0647 14.7271 14.7272C15.0647 14.3896 15.5225 14.2 15.9999 14.2C16.4773 14.2 16.9351 14.3896 17.2727 14.7272C17.6103 15.0647 17.7999 15.5226 17.7999 16C17.7999 16.4774 17.6103 16.9352 17.2727 17.2728C16.9351 17.6103 16.4773 17.8 15.9999 17.8ZM15.3663 21.3928C15.5763 21.6448 15.7875 21.8896 15.9999 22.1236C16.2123 21.8896 16.4235 21.646 16.6335 21.3928C16.2112 21.4017 15.7887 21.4017 15.3663 21.3928ZM12.9723 21.2428C12.0508 21.1469 11.1353 20.9994 10.2303 20.8012C10.1403 21.2212 10.0719 21.6292 10.0263 22.0204C9.7983 23.92 10.1163 25.0744 10.5999 25.3528C11.0835 25.6324 12.2415 25.33 13.7739 24.184C14.0895 23.9476 14.4075 23.6848 14.7267 23.398C14.1021 22.7129 13.5164 21.9934 12.9723 21.2428ZM21.7695 20.8012C20.9091 20.9932 19.9899 21.142 19.0275 21.2428C18.4834 21.9934 17.8977 22.7129 17.2731 23.398C17.5923 23.686 17.9103 23.9476 18.2259 24.184C19.7583 25.33 20.9163 25.6324 21.3999 25.3528C21.8835 25.0744 22.2003 23.92 21.9747 22.0204C21.9252 21.6111 21.8571 21.2043 21.7707 20.8012H21.7695ZM23.5095 20.3368C24.2019 23.5036 23.8383 26.0248 22.2999 26.9128C20.7615 27.8008 18.3963 26.8552 15.9999 24.6724C13.6035 26.8552 11.2383 27.7996 9.6999 26.9116C8.1615 26.0236 7.7979 23.5036 8.4891 20.3356C5.4003 19.3528 3.3999 17.776 3.3999 16C3.3999 14.224 5.4003 12.6484 8.4891 11.6632C7.7979 8.49637 8.1615 5.97517 9.6999 5.08717C11.2383 4.19917 13.6035 5.14477 15.9999 7.32757C18.3963 5.14477 20.7615 4.20037 22.2999 5.08837C23.8383 5.97637 24.2019 8.49637 23.5107 11.6644C26.5995 12.6472 28.5999 14.224 28.5999 16C28.5999 17.776 26.5995 19.3516 23.5107 20.3368H23.5095ZM14.7255 8.60197C14.4203 8.32573 14.1028 8.06347 13.7739 7.81597C12.2415 6.66997 11.0835 6.36757 10.5999 6.64717C10.1163 6.92557 9.7995 8.07997 10.0251 9.97957C10.0731 10.372 10.1403 10.7788 10.2291 11.1988C11.1345 11.0004 12.0504 10.853 12.9723 10.7572C13.5423 9.97357 14.1303 9.25237 14.7267 8.60197H14.7255ZM19.0275 10.7572C19.9899 10.858 20.9091 11.008 21.7695 11.1988C21.8595 10.7788 21.9279 10.3708 21.9735 9.97957C22.2015 8.07997 21.8835 6.92557 21.3999 6.64717C20.9163 6.36757 19.7583 6.66997 18.2259 7.81597C17.8966 8.06344 17.5787 8.32571 17.2731 8.60197C17.8695 9.25237 18.4575 9.97357 19.0275 10.7572ZM16.6335 10.6072C16.4235 10.3552 16.2123 10.1104 15.9999 9.87637C15.7875 10.1104 15.5763 10.354 15.3663 10.6072C15.7887 10.5982 16.2112 10.5982 16.6335 10.6072ZM11.6463 19.2448C11.4274 18.8837 11.2161 18.518 11.0127 18.148C10.8987 18.4564 10.7931 18.76 10.6971 19.0612C11.0055 19.1284 11.3223 19.1896 11.6451 19.2448H11.6463ZM13.9647 19.5256C15.3196 19.6262 16.6802 19.6262 18.0351 19.5256C18.7997 18.4023 19.48 17.2239 20.0703 16C19.48 14.7761 18.7997 13.5976 18.0351 12.4744C16.6802 12.3737 15.3196 12.3737 13.9647 12.4744C13.2001 13.5976 12.5198 14.7761 11.9295 16C12.5198 17.2239 13.2001 18.4023 13.9647 19.5256ZM20.9871 13.852C21.1011 13.5436 21.2067 13.24 21.3027 12.9388C20.9881 12.8705 20.672 12.8093 20.3547 12.7552C20.5732 13.1163 20.7841 13.4819 20.9871 13.852ZM8.9559 13.4044C8.5479 13.5364 8.1615 13.6804 7.7991 13.8364C6.0411 14.59 5.1999 15.442 5.1999 16C5.1999 16.558 6.0399 17.41 7.7991 18.1636C8.1615 18.3196 8.5479 18.4636 8.9559 18.5956C9.2223 17.7556 9.5523 16.8844 9.9459 16C9.56769 15.1539 9.23717 14.2874 8.9559 13.4044ZM10.6959 12.9388C10.7931 13.2388 10.8987 13.5436 11.0127 13.8508C11.2161 13.4811 11.4274 13.1158 11.6463 12.7552C11.3223 12.8104 11.0055 12.8716 10.6971 12.9388H10.6959ZM23.0439 18.5956C23.4519 18.4636 23.8383 18.3196 24.2007 18.1636C25.9587 17.41 26.7999 16.558 26.7999 16C26.7999 15.442 25.9599 14.59 24.2007 13.8364C23.8218 13.675 23.4358 13.5308 23.0439 13.4044C22.7775 14.2444 22.4475 15.1156 22.0539 16C22.4475 16.8844 22.7775 17.7544 23.0439 18.5956ZM21.3039 19.0612C21.2067 18.7612 21.1011 18.4564 20.9871 18.1492C20.7837 18.5188 20.5724 18.8841 20.3535 19.2448C20.6775 19.1896 20.9943 19.1284 21.3027 19.0612H21.3039Z" fill="currentColor"/>
</svg>
