<svg width="16" height="16" viewBox="0 0 16 16" fill="none" xmlns="http://www.w3.org/2000/svg">
<path d="M3.2 10.4V3.2H2V2H3.8C3.95913 2 4.11174 2.06321 4.22426 2.17574C4.33679 2.28826 4.4 2.44087 4.4 2.6V9.8H11.8628L13.0628 5H5.6V3.8H13.832C13.9232 3.8 14.0132 3.8208 14.0952 3.8608C14.1771 3.90081 14.2489 3.95897 14.305 4.03087C14.3611 4.10277 14.4001 4.18652 14.419 4.27575C14.4379 4.36497 14.4362 4.45733 14.414 4.5458L12.914 10.5458C12.8815 10.6755 12.8066 10.7907 12.7011 10.873C12.5957 10.9553 12.4658 11 12.332 11H3.8C3.64087 11 3.48826 10.9368 3.37574 10.8243C3.26321 10.7117 3.2 10.5591 3.2 10.4ZM4.4 14.6C4.08174 14.6 3.77652 14.4736 3.55147 14.2485C3.32643 14.0235 3.2 13.7183 3.2 13.4C3.2 13.0817 3.32643 12.7765 3.55147 12.5515C3.77652 12.3264 4.08174 12.2 4.4 12.2C4.71826 12.2 5.02348 12.3264 5.24853 12.5515C5.47357 12.7765 5.6 13.0817 5.6 13.4C5.6 13.7183 5.47357 14.0235 5.24853 14.2485C5.02348 14.4736 4.71826 14.6 4.4 14.6ZM11.6 14.6C11.2817 14.6 10.9765 14.4736 10.7515 14.2485C10.5264 14.0235 10.4 13.7183 10.4 13.4C10.4 13.0817 10.5264 12.7765 10.7515 12.5515C10.9765 12.3264 11.2817 12.2 11.6 12.2C11.9183 12.2 12.2235 12.3264 12.4485 12.5515C12.6736 12.7765 12.8 13.0817 12.8 13.4C12.8 13.7183 12.6736 14.0235 12.4485 14.2485C12.2235 14.4736 11.9183 14.6 11.6 14.6Z" fill="currentColor"/>
</svg>
