<svg width="21" height="20" viewBox="0 0 21 20" fill="none" xmlns="http://www.w3.org/2000/svg">
<path d="M10.25 14.5C9.05653 14.5 7.91193 14.0259 7.06802 13.182C6.22411 12.3381 5.75 11.1935 5.75 10C5.75 8.80653 6.22411 7.66193 7.06802 6.81802C7.91193 5.97411 9.05653 5.5 10.25 5.5C11.4435 5.5 12.5881 5.97411 13.432 6.81802C14.2759 7.66193 14.75 8.80653 14.75 10C14.75 11.1935 14.2759 12.3381 13.432 13.182C12.5881 14.0259 11.4435 14.5 10.25 14.5ZM10.25 13C11.0456 13 11.8087 12.6839 12.3713 12.1213C12.9339 11.5587 13.25 10.7956 13.25 10C13.25 9.20435 12.9339 8.44129 12.3713 7.87868C11.8087 7.31607 11.0456 7 10.25 7C9.45435 7 8.69129 7.31607 8.12868 7.87868C7.56607 8.44129 7.25 9.20435 7.25 10C7.25 10.7956 7.56607 11.5587 8.12868 12.1213C8.69129 12.6839 9.45435 13 10.25 13ZM9.5 1.75H11V4H9.5V1.75ZM9.5 16H11V18.25H9.5V16ZM3.88625 4.69675L4.94675 3.63625L6.5375 5.227L5.477 6.2875L3.88625 4.6975V4.69675ZM13.9625 14.773L15.023 13.7125L16.6138 15.3032L15.5532 16.3638L13.9625 14.773ZM15.5532 3.6355L16.6138 4.69675L15.023 6.2875L13.9625 5.227L15.5532 3.63625V3.6355ZM5.477 13.7125L6.5375 14.773L4.94675 16.3638L3.88625 15.3032L5.477 13.7125ZM18.5 9.25V10.75H16.25V9.25H18.5ZM4.25 9.25V10.75H2V9.25H4.25Z" fill="currentColor"/>
</svg>
